# xmcd CD database file
#
# Track frame offsets:
#	150
#	17727
#	33992
#	52202
#	72390
#	88772
#	106162
#	130887
#	148387
#	160600
#	183865
#	195335
#	212090
#	230557
#
# Disc length: 3305 seconds
#
# Revision: 8
# Processed by: cddbd v1.5.2PL0 Copyright (c) Steve Scherf et al.
# Submitted via: CDex 1.79
#
DISCID=c50ce70e
DTITLE=Billy Ray Cyrus - Storm In The Heartland
DYEAR=1994
DGENRE=Country
TTITLE0=Storm In The Heartland
TTITLE1=Deja Blue
TTITLE2=Redneck Heaven
TTITLE3=Casualty Of Love
TTITLE4=One Last Thrill
TTITLE5=I Ain't Even Left
TTITLE6=How Much
TTITLE7=Patsy Come Home
TTITLE8=A Heart With Your Name On It
TTITLE9=Only God Could Stop Me Loving You
TTITLE10=Roll Me Over
TTITLE11=Enough Is Enough
TTITLE12=The Past
TTITLE13=Geronimo
EXTD=YEAR: 1994
EXTT0=
EXTT1=
EXTT2=
EXTT3=
EXTT4=
EXTT5=
EXTT6=
EXTT7=
EXTT8=
EXTT9=
EXTT10=
EXTT11=
EXTT12=
EXTT13=
PLAYORDER=
